<svg width="646" height="124" viewBox="0 0 646 124" fill="none" xmlns="http://www.w3.org/2000/svg">
<path d="M9.0402 82.88C7.22686 82.88 5.62686 82.4 4.2402 81.44C2.90686 80.48 1.86686 79.12 1.1202 77.36C0.373529 75.6 0.000195324 73.52 0.000195324 71.12C0.000195324 68.6667 0.373529 66.0267 1.1202 63.2C1.86686 60.3734 2.98686 57.6 4.4802 54.88C5.97353 52.16 7.78686 49.68 9.9202 47.44C12.1069 45.2 14.5869 43.4134 17.3602 42.08C20.1335 40.6933 23.2269 40 26.6402 40C28.1869 40 29.8402 40.2133 31.6002 40.64C33.3602 41.0667 35.0669 41.68 36.7202 42.48L49.9202 2.88002C50.2402 1.81335 50.6402 1.12002 51.1202 0.800014C51.6535 0.480012 52.4535 0.320011 53.5202 0.320011C55.1735 0.320011 56.2135 0.586681 56.6402 1.12002C57.1202 1.60002 57.1735 2.37335 56.8002 3.44001L34.8002 69.6C33.9469 72.3734 33.6002 74.2934 33.7602 75.36C33.9202 76.3734 34.8269 76.88 36.4802 76.88C36.9602 76.88 37.3069 77.2 37.5202 77.84C37.7869 78.4267 37.8669 79.12 37.7602 79.92C37.7069 80.6667 37.4669 81.3334 37.0402 81.92C36.6135 82.56 35.9735 82.88 35.1202 82.88C32.5069 82.88 30.5602 82.4267 29.2802 81.52C28.0002 80.6667 27.1735 79.5734 26.8002 78.24C26.4802 76.8534 26.4269 75.4134 26.6402 73.92C26.9069 72.3734 27.2535 70.96 27.6802 69.68L27.8402 69.12C25.6002 72.2134 23.3602 74.7734 21.1202 76.8C18.9335 78.8267 16.8269 80.3467 14.8002 81.36C12.7735 82.3734 10.8535 82.88 9.0402 82.88ZM11.2802 76.48C13.1469 76.48 15.2535 75.5467 17.6002 73.68C20.0002 71.76 22.5602 68.96 25.2802 65.28C28.0535 61.6 30.8269 57.1467 33.6002 51.92L34.8802 48.16C33.0135 47.4134 31.3069 46.9334 29.7602 46.72C28.2135 46.4534 26.8002 46.32 25.5202 46.32C23.2269 46.32 21.1202 46.8534 19.2002 47.92C17.2802 48.9867 15.5735 50.4 14.0802 52.16C12.6402 53.8667 11.4135 55.7867 10.4002 57.92C9.38686 60 8.61353 62.08 8.0802 64.16C7.54686 66.24 7.2802 68.1334 7.2802 69.84C7.2802 71.1734 7.4402 72.3467 7.7602 73.36C8.0802 74.3734 8.53353 75.1467 9.1202 75.68C9.7602 76.2134 10.4802 76.48 11.2802 76.48ZM35.0902 82.88C34.0769 82.88 33.4102 82.56 33.0902 81.92C32.7169 81.3334 32.6369 80.6667 32.8502 79.92C33.0102 79.12 33.4102 78.4267 34.0502 77.84C34.6902 77.2 35.5169 76.88 36.5302 76.88C37.4902 76.88 38.6902 76.3734 40.1302 75.36C41.5169 74.2934 43.2502 72.6134 45.3302 70.32C47.4102 67.9734 49.9169 64.9067 52.8502 61.12C55.7835 57.3334 59.2502 52.6934 63.2502 47.2C63.8902 46.3467 64.5569 46 65.2502 46.16C65.9969 46.32 66.5035 46.7734 66.7702 47.52C67.0902 48.2667 66.9302 49.0934 66.2902 50C61.9169 56.4 58.1035 61.7334 54.8502 66C51.6502 70.2134 48.8769 73.5734 46.5302 76.08C44.1302 78.5334 42.0235 80.2934 40.2102 81.36C38.3969 82.3734 36.6902 82.88 35.0902 82.88ZM89.1702 82.88C86.8235 82.88 85.0635 82.4267 83.8902 81.52C82.7702 80.6667 82.0769 79.5734 81.8102 78.24C81.5435 76.8534 81.5435 75.4134 81.8102 73.92C82.0769 72.3734 82.4235 70.96 82.8502 69.68L88.2902 54C88.7702 52.6134 89.0635 51.36 89.1702 50.24C89.3302 49.0667 89.1435 48.1334 88.6102 47.44C88.1302 46.7467 87.1435 46.4 85.6502 46.4C83.8369 46.4 81.8102 47.2 79.5702 48.8C77.3835 50.4 75.1169 52.64 72.7702 55.52C70.4235 58.4 68.1035 61.8134 65.8102 65.76C63.5702 69.6534 61.4902 73.9467 59.5702 78.64L59.1702 71.44C61.1969 66.48 63.3569 62.08 65.6502 58.24C67.9435 54.3467 70.3435 51.04 72.8502 48.32C75.3569 45.6 77.8902 43.5467 80.4502 42.16C83.0635 40.72 85.6769 40 88.2902 40C90.7435 40 92.6369 40.6133 93.9702 41.84C95.3569 43.0134 96.1035 44.7734 96.2102 47.12C96.3702 49.4667 95.8635 52.3734 94.6902 55.84L89.9702 69.6C89.0102 72.3734 88.5569 74.2934 88.6102 75.36C88.7169 76.3734 89.4102 76.88 90.6902 76.88C91.4369 76.88 91.9702 77.2 92.2902 77.84C92.6635 78.4267 92.7969 79.12 92.6902 79.92C92.6369 80.6667 92.3169 81.3334 91.7302 81.92C91.1435 82.56 90.2902 82.88 89.1702 82.88ZM55.1702 82.72C54.3169 82.72 53.5169 82.5334 52.7702 82.16C52.0235 81.7867 51.8102 81.0934 52.1302 80.08L72.4502 17.84C74.4235 11.6 76.6102 7.06668 79.0102 4.24002C81.4635 1.41335 84.3969 1.52588e-05 87.8102 1.52588e-05C89.5702 1.52588e-05 91.0635 0.400015 92.2902 1.20001C93.5702 2.00002 94.5569 3.12002 95.2502 4.56001C95.9969 5.94668 96.3702 7.54668 96.3702 9.36001C96.3702 10.8 96.1569 12.3467 95.7302 14C95.3035 15.6 94.6902 17.3067 93.8902 19.12C93.1435 20.88 92.1835 22.7467 91.0102 24.72C89.8902 26.64 88.5569 28.6134 87.0102 30.64C85.5169 32.6133 83.8635 34.64 82.0502 36.72C80.2369 38.7467 78.2369 40.8267 76.0502 42.96C73.9169 45.04 71.6235 47.1467 69.1702 49.28L58.9302 80.64C58.7169 81.3334 58.3435 81.84 57.8102 82.16C57.2769 82.5334 56.3969 82.72 55.1702 82.72ZM72.1302 40.24C73.8369 38.48 75.4369 36.6934 76.9302 34.88C78.4769 33.0667 79.8902 31.2533 81.1702 29.44C82.5035 27.6267 83.7035 25.8667 84.7702 24.16C85.8369 22.4 86.7169 20.6933 87.4102 19.04C88.1569 17.3867 88.7169 15.8134 89.0902 14.32C89.5169 12.7734 89.7302 11.3334 89.7302 10C89.7302 9.25335 89.6235 8.61335 89.4102 8.08002C89.1969 7.54668 88.8769 7.14668 88.4502 6.88002C88.0235 6.56002 87.4902 6.40001 86.8502 6.40001C85.9969 6.40001 85.1702 6.77335 84.3702 7.52001C83.5702 8.21335 82.7435 9.52002 81.8902 11.44C81.0369 13.36 80.0235 16.1067 78.8502 19.68L72.1302 40.24ZM89.1527 82.88C88.406 82.88 87.846 82.56 87.4727 81.92C87.0994 81.3334 86.966 80.6667 87.0727 79.92C87.126 79.12 87.446 78.4267 88.0327 77.84C88.6194 77.2 89.4727 76.88 90.5927 76.88C91.9794 76.88 93.446 76.3734 94.9927 75.36C96.5394 74.3467 98.1394 72.9334 99.7927 71.12C101.393 69.3067 103.046 67.1734 104.753 64.72C106.459 62.2667 108.193 59.6 109.953 56.72C110.379 56.0267 110.966 55.7334 111.713 55.84C112.459 55.9467 113.073 56.2934 113.553 56.88C114.033 57.4134 114.059 58.0267 113.633 58.72C111.339 62.72 109.153 66.24 107.073 69.28C105.046 72.32 103.073 74.8534 101.153 76.88C99.1794 78.8534 97.2327 80.3467 95.3127 81.36C93.3394 82.3734 91.286 82.88 89.1527 82.88ZM115.313 82.88C113.499 82.88 111.926 82.4 110.593 81.44C109.259 80.48 108.219 79.12 107.473 77.36C106.726 75.6 106.353 73.52 106.353 71.12C106.353 68.6667 106.726 66.0267 107.473 63.2C108.219 60.3734 109.339 57.6 110.833 54.88C112.326 52.16 114.139 49.68 116.273 47.44C118.406 45.2 120.859 43.4134 123.633 42.08C126.459 40.6933 129.553 40 132.913 40C134.939 40 137.126 40.3734 139.473 41.12C141.819 41.8134 143.926 42.8 145.793 44.08L144.353 49.6C141.739 48.2134 139.419 47.3334 137.393 46.96C135.366 46.5334 133.499 46.32 131.793 46.32C129.499 46.32 127.393 46.8534 125.473 47.92C123.606 48.9867 121.926 50.4 120.433 52.16C118.993 53.8667 117.766 55.7867 116.753 57.92C115.739 60 114.966 62.08 114.433 64.16C113.899 66.24 113.633 68.1334 113.633 69.84C113.633 71.1734 113.793 72.3467 114.113 73.36C114.433 74.3734 114.886 75.1467 115.473 75.68C116.113 76.2134 116.833 76.48 117.633 76.48C119.606 76.48 121.846 75.4134 124.353 73.28C126.859 71.0934 129.526 67.8934 132.353 63.68C135.233 59.4667 138.166 54.3467 141.153 48.32L144.113 51.28C140.646 58.4267 137.206 64.3467 133.793 69.04C130.433 73.68 127.206 77.1467 124.113 79.44C121.019 81.7334 118.086 82.88 115.313 82.88ZM139.953 82.88C137.553 82.88 135.766 82.4267 134.593 81.52C133.473 80.6667 132.753 79.5734 132.433 78.24C132.166 76.8534 132.166 75.4134 132.433 73.92C132.699 72.3734 133.073 70.96 133.553 69.68L142.513 42.88C142.886 41.8134 143.313 41.12 143.793 40.8C144.326 40.48 145.099 40.32 146.113 40.32C147.766 40.32 148.806 40.5867 149.233 41.12C149.713 41.6 149.766 42.3734 149.393 43.44L140.593 69.6C139.686 72.3734 139.259 74.2934 139.313 75.36C139.419 76.3734 140.086 76.88 141.313 76.88C142.059 76.88 142.619 77.2 142.993 77.84C143.366 78.4267 143.499 79.12 143.393 79.92C143.339 80.6667 143.019 81.3334 142.433 81.92C141.899 82.56 141.073 82.88 139.953 82.88ZM140.094 82.88C139.241 82.88 138.707 82.56 138.494 81.92C138.227 81.3334 138.227 80.6667 138.494 79.92C138.707 79.12 139.081 78.4267 139.614 77.84C140.147 77.2 140.734 76.88 141.374 76.88C142.334 76.88 143.374 76.5067 144.494 75.76C145.561 75.0134 146.681 73.92 147.854 72.48C148.974 71.04 150.174 69.3067 151.454 67.28C152.681 65.2 153.961 62.8534 155.294 60.24C157.694 55.6534 159.827 52 161.694 49.28C163.614 46.56 165.374 44.5334 166.974 43.2C168.574 41.8667 170.094 41.0134 171.534 40.64C173.027 40.2133 174.521 40 176.014 40C176.547 40 176.894 40.32 177.054 40.96C177.214 41.5467 177.187 42.24 176.974 43.04C176.761 43.7867 176.387 44.48 175.854 45.12C175.374 45.7067 174.734 46 173.934 46C173.347 46 172.654 46.16 171.854 46.48C171.107 46.7467 170.227 47.3867 169.214 48.4C168.254 49.36 167.107 50.8267 165.774 52.8C164.494 54.7734 163.001 57.4134 161.294 60.72C158.787 65.7334 156.494 69.7334 154.414 72.72C152.334 75.6534 150.441 77.8667 148.734 79.36C147.027 80.8 145.481 81.7334 144.094 82.16C142.654 82.64 141.321 82.88 140.094 82.88ZM201.583 82.88C199.236 82.88 197.476 82.4267 196.303 81.52C195.183 80.6667 194.489 79.5734 194.223 78.24C193.956 76.8534 193.956 75.4134 194.223 73.92C194.489 72.3734 194.836 70.96 195.263 69.68L200.703 54C201.183 52.6134 201.476 51.36 201.583 50.24C201.743 49.0667 201.556 48.1334 201.023 47.44C200.543 46.7467 199.556 46.4 198.063 46.4C196.303 46.4 194.329 47.1734 192.143 48.72C190.009 50.2667 187.796 52.4267 185.503 55.2C183.263 57.9734 181.023 61.28 178.783 65.12C176.543 68.9067 174.463 73.0934 172.543 77.68L171.583 80.64C171.369 81.3334 170.969 81.84 170.383 82.16C169.849 82.5334 168.969 82.72 167.743 82.72C166.889 82.72 166.089 82.5334 165.343 82.16C164.649 81.7867 164.463 81.0934 164.783 80.08L175.183 47.92C175.343 47.3867 175.316 46.9334 175.103 46.56C174.943 46.1867 174.543 46 173.903 46C173.263 46 172.809 45.7067 172.543 45.12C172.329 44.48 172.303 43.7867 172.463 43.04C172.623 42.24 172.996 41.5467 173.583 40.96C174.169 40.32 174.943 40 175.903 40C177.876 40 179.316 40.3734 180.223 41.12C181.183 41.8134 181.769 42.7467 181.983 43.92C182.196 45.04 182.196 46.24 181.983 47.52C181.769 48.8 181.503 49.9734 181.183 51.04L179.583 55.84C181.236 53.28 182.916 51.04 184.623 49.12C186.383 47.1467 188.143 45.4934 189.903 44.16C191.663 42.7734 193.449 41.7334 195.263 41.04C197.076 40.3467 198.889 40 200.703 40C203.156 40 205.049 40.6133 206.383 41.84C207.716 43.0134 208.463 44.7734 208.623 47.12C208.783 49.4667 208.276 52.3734 207.103 55.84L202.383 69.6C201.423 72.3734 200.969 74.2934 201.023 75.36C201.129 76.3734 201.823 76.88 203.103 76.88C203.849 76.88 204.383 77.2 204.703 77.84C205.076 78.4267 205.209 79.12 205.103 79.92C205.049 80.6667 204.729 81.3334 204.143 81.92C203.556 82.56 202.703 82.88 201.583 82.88ZM201.575 82.88C200.828 82.88 200.268 82.56 199.895 81.92C199.521 81.3334 199.388 80.6667 199.495 79.92C199.548 79.12 199.868 78.4267 200.455 77.84C201.041 77.2 201.895 76.88 203.015 76.88C204.295 76.88 205.761 76.24 207.415 74.96C209.015 73.68 210.908 71.68 213.095 68.96C215.281 66.1867 217.868 62.5867 220.855 58.16C223.841 53.68 227.335 48.2667 231.335 41.92C231.815 41.1734 232.428 40.8534 233.175 40.96C233.975 41.0667 234.615 41.4134 235.095 42C235.575 42.5867 235.601 43.2267 235.175 43.92C230.641 51.6 226.721 57.9734 223.415 63.04C220.161 68.0534 217.308 72.0267 214.855 74.96C212.401 77.84 210.135 79.8934 208.055 81.12C205.921 82.2934 203.761 82.88 201.575 82.88ZM228.855 82.72C226.401 82.72 224.481 82.1334 223.095 80.96C221.761 79.7334 221.041 77.9467 220.935 75.6C220.828 73.2 221.335 70.2934 222.455 66.88L230.455 42.88C230.828 41.8134 231.255 41.12 231.735 40.8C232.268 40.48 233.041 40.32 234.055 40.32C235.708 40.32 236.748 40.5867 237.175 41.12C237.655 41.6 237.708 42.3734 237.335 43.44L228.855 68.72C228.375 70.0534 228.055 71.3067 227.895 72.48C227.788 73.6534 227.975 74.5867 228.455 75.28C228.988 75.9734 229.975 76.32 231.415 76.32C233.281 76.32 235.308 75.52 237.495 73.92C239.681 72.32 241.921 70.08 244.215 67.2C246.561 64.32 248.855 60.9334 251.095 57.04C253.335 53.0934 255.415 48.7734 257.335 44.08L257.735 42.88C258.108 41.8134 258.535 41.12 259.015 40.8C259.548 40.48 260.321 40.32 261.335 40.32C262.988 40.32 264.028 40.5867 264.455 41.12C264.935 41.6 264.988 42.3734 264.615 43.44L255.975 69.6C255.068 72.3734 254.641 74.2934 254.695 75.36C254.748 76.3734 255.388 76.88 256.615 76.88C257.361 76.88 257.921 77.2 258.295 77.84C258.668 78.4267 258.801 79.12 258.695 79.92C258.641 80.6667 258.321 81.3334 257.735 81.92C257.148 82.56 256.295 82.88 255.175 82.88C252.828 82.88 251.068 82.4267 249.895 81.52C248.775 80.6667 248.081 79.5734 247.815 78.24C247.548 76.8534 247.548 75.4134 247.815 73.92C248.081 72.3734 248.428 70.96 248.855 69.68L249.735 67.12C248.135 69.6267 246.481 71.84 244.775 73.76C243.068 75.68 241.308 77.3067 239.495 78.64C237.735 79.9734 235.948 80.9867 234.135 81.68C232.375 82.3734 230.615 82.72 228.855 82.72ZM255.248 82.88C254.235 82.88 253.568 82.56 253.248 81.92C252.875 81.3334 252.768 80.6667 252.928 79.92C253.088 79.12 253.488 78.4267 254.128 77.84C254.768 77.2 255.595 76.88 256.608 76.88C258.208 76.88 259.942 76.2667 261.808 75.04C263.622 73.8134 265.728 71.84 268.128 69.12C270.475 66.3467 273.248 62.6934 276.448 58.16C279.648 53.5734 283.355 47.9467 287.568 41.28C287.995 40.5867 288.582 40.32 289.328 40.48C290.128 40.64 290.768 41.0133 291.248 41.6C291.782 42.1867 291.835 42.8267 291.408 43.52C287.195 50.88 283.408 57.0934 280.048 62.16C276.688 67.1734 273.622 71.2 270.848 74.24C268.075 77.28 265.435 79.4934 262.928 80.88C260.422 82.2134 257.862 82.88 255.248 82.88ZM299.246 82.88C298.126 82.88 297.006 82.8 295.886 82.64C294.766 82.48 293.566 82.3734 292.286 82.32C291.06 82.2667 289.646 82.4 288.046 82.72L289.006 80.88C290.98 80.0267 292.74 79.3067 294.286 78.72C295.833 78.1334 297.14 77.68 298.206 77.36C299.326 77.04 300.153 76.88 300.686 76.88C301.166 76.88 301.486 77.2 301.646 77.84C301.806 78.4267 301.806 79.12 301.646 79.92C301.54 80.6667 301.273 81.3334 300.846 81.92C300.42 82.56 299.886 82.88 299.246 82.88ZM285.886 83.04C283.273 83.04 280.9 82.64 278.766 81.84C276.686 81.04 275.246 80.1867 274.446 79.28C273.646 78.4267 273.273 77.7067 273.326 77.12C273.38 76.48 273.753 75.84 274.446 75.2C275.086 74.56 275.646 74.2667 276.126 74.32C276.66 74.3734 277.353 74.6934 278.206 75.28C279.113 75.8667 280.18 76.4 281.406 76.88C282.686 77.3067 284.046 77.52 285.486 77.52C288.26 77.52 290.42 76.8534 291.966 75.52C293.513 74.1867 294.286 72.3467 294.286 70C294.286 68.6667 294.073 67.3334 293.646 66C293.22 64.6134 292.66 63.2267 291.966 61.84C291.273 60.4534 290.553 59.04 289.806 57.6C289.06 56.16 288.34 54.6667 287.646 53.12C286.953 51.5734 286.393 49.9734 285.966 48.32C285.54 46.6134 285.326 44.8534 285.326 43.04C285.326 40.2133 285.966 38.2133 287.246 37.04C288.58 35.8133 289.966 35.2 291.406 35.2C292.633 35.2 293.566 35.5467 294.206 36.24C294.9 36.88 295.246 37.7067 295.246 38.72C295.246 39.7867 294.82 40.9334 293.966 42.16C293.166 43.3867 292.313 44.5334 291.406 45.6C291.406 46.88 291.646 48.16 292.126 49.44C292.606 50.6667 293.22 51.9467 293.966 53.28C294.713 54.56 295.486 55.8667 296.286 57.2C297.14 58.5334 297.94 59.92 298.686 61.36C299.433 62.7467 300.046 64.1867 300.526 65.68C301.006 67.12 301.246 68.64 301.246 70.24C301.246 74.08 299.86 77.1734 297.086 79.52C294.366 81.8667 290.633 83.04 285.886 83.04ZM299.231 82.88C298.217 82.88 297.551 82.56 297.231 81.92C296.857 81.3334 296.777 80.6667 296.991 79.92C297.151 79.12 297.551 78.4267 298.191 77.84C298.831 77.2 299.657 76.88 300.671 76.88C301.631 76.88 302.831 76.3734 304.271 75.36C305.657 74.2934 307.391 72.6134 309.471 70.32C311.551 67.9734 314.057 64.9067 316.991 61.12C319.924 57.3334 323.391 52.6934 327.391 47.2C328.031 46.3467 328.697 46 329.391 46.16C330.137 46.32 330.644 46.7734 330.911 47.52C331.231 48.2667 331.071 49.0934 330.431 50C326.057 56.4 322.244 61.7334 318.991 66C315.791 70.2134 313.017 73.5734 310.671 76.08C308.271 78.5334 306.164 80.2934 304.351 81.36C302.537 82.3734 300.831 82.88 299.231 82.88ZM351.711 82.72C349.737 82.72 348.271 82.2934 347.311 81.44C346.404 80.5334 345.871 79.4134 345.711 78.08C345.551 76.7467 345.604 75.3334 345.871 73.84C346.191 72.3467 346.564 70.96 346.991 69.68L352.431 54C352.911 52.6134 353.204 51.36 353.311 50.24C353.471 49.0667 353.284 48.1334 352.751 47.44C352.271 46.7467 351.284 46.4 349.791 46.4C347.977 46.4 345.951 47.2 343.711 48.8C341.524 50.4 339.257 52.64 336.911 55.52C334.564 58.4 332.244 61.8134 329.951 65.76C327.711 69.6534 325.631 73.9467 323.711 78.64L323.311 71.44C325.337 66.48 327.497 62.08 329.791 58.24C332.084 54.3467 334.484 51.04 336.991 48.32C339.497 45.6 342.031 43.5467 344.591 42.16C347.204 40.72 349.817 40 352.431 40C354.884 40 356.777 40.6133 358.111 41.84C359.444 43.0134 360.191 44.7734 360.351 47.12C360.511 49.4667 360.004 52.3734 358.831 55.84L352.831 73.2C352.511 74.2134 352.324 74.96 352.271 75.44C352.271 75.92 352.377 76.24 352.591 76.4C352.804 76.56 353.044 76.64 353.311 76.64C353.844 76.64 354.377 76.48 354.911 76.16C355.497 75.7867 356.111 75.28 356.751 74.64C357.444 73.9467 358.164 73.1467 358.911 72.24C359.337 71.7067 359.764 71.4134 360.191 71.36C360.617 71.2534 361.124 71.4134 361.711 71.84C362.564 72.3734 363.071 72.9067 363.231 73.44C363.444 73.9734 363.391 74.5067 363.071 75.04C362.591 75.84 361.817 76.8534 360.751 78.08C359.737 79.3067 358.457 80.4 356.911 81.36C355.364 82.2667 353.631 82.72 351.711 82.72ZM319.311 82.72C318.457 82.72 317.657 82.5334 316.911 82.16C316.164 81.7867 315.951 81.0934 316.271 80.08L336.591 17.84C338.564 11.6 340.751 7.06668 343.151 4.24002C345.604 1.41335 348.537 1.52588e-05 351.951 1.52588e-05C353.711 1.52588e-05 355.204 0.400015 356.431 1.20001C357.711 2.00002 358.697 3.12002 359.391 4.56001C360.137 5.94668 360.511 7.54668 360.511 9.36001C360.511 10.8 360.297 12.3467 359.871 14C359.444 15.6 358.831 17.3067 358.031 19.12C357.284 20.88 356.324 22.7467 355.151 24.72C354.031 26.64 352.697 28.6134 351.151 30.64C349.657 32.6133 348.004 34.64 346.191 36.72C344.377 38.7467 342.377 40.8267 340.191 42.96C338.057 45.04 335.764 47.1467 333.311 49.28L323.071 80.64C322.857 81.3334 322.484 81.84 321.951 82.16C321.417 82.5334 320.537 82.72 319.311 82.72ZM336.271 40.24C337.977 38.48 339.577 36.6934 341.071 34.88C342.617 33.0667 344.031 31.2533 345.311 29.44C346.644 27.6267 347.844 25.8667 348.911 24.16C349.977 22.4 350.857 20.6933 351.551 19.04C352.297 17.3867 352.857 15.8134 353.231 14.32C353.657 12.7734 353.871 11.3334 353.871 10C353.871 9.25335 353.764 8.61335 353.551 8.08002C353.337 7.54668 353.017 7.14668 352.591 6.88002C352.164 6.56002 351.631 6.40001 350.991 6.40001C350.137 6.40001 349.311 6.77335 348.511 7.52001C347.711 8.21335 346.884 9.52002 346.031 11.44C345.177 13.36 344.164 16.1067 342.991 19.68L336.271 40.24ZM356.813 92.24C356.013 92.24 355.533 92 355.373 91.52C355.16 91.04 355.24 90.2134 355.613 89.04C356.04 87.8134 356.493 86.96 356.973 86.48C357.4 86.0534 358.013 85.84 358.813 85.84H382.653C383.453 85.84 383.96 86.0534 384.173 86.48C384.387 86.96 384.28 87.8134 383.853 89.04C383.48 90.2134 383.053 91.04 382.573 91.52C382.093 92 381.453 92.24 380.653 92.24H356.813ZM407.918 82.88C405.411 82.88 403.358 82.32 401.758 81.2C400.211 80.0267 399.091 78.5067 398.398 76.64C397.704 74.72 397.411 72.5867 397.518 70.24C397.624 67.8934 398.078 65.52 398.878 63.12L403.918 47.92H397.838C397.251 47.92 396.851 47.6534 396.638 47.12C396.424 46.5867 396.451 45.7867 396.718 44.72C397.038 43.6534 397.464 42.8534 397.998 42.32C398.531 41.7867 399.091 41.52 399.678 41.52H406.078L411.278 25.68C411.598 24.6133 411.998 23.92 412.478 23.6C413.011 23.28 413.811 23.12 414.878 23.12C416.584 23.12 417.651 23.3867 418.078 23.92C418.504 24.4 418.531 25.1734 418.158 26.24L413.038 41.52H423.118C423.704 41.52 424.104 41.7867 424.318 42.32C424.584 42.8 424.558 43.6 424.238 44.72C423.971 45.7334 423.571 46.5334 423.038 47.12C422.504 47.6534 421.944 47.92 421.358 47.92H410.958L405.678 63.84C404.931 66.08 404.504 68.0267 404.398 69.68C404.344 71.3334 404.504 72.6934 404.878 73.76C405.304 74.8267 405.918 75.6267 406.718 76.16C407.518 76.64 408.424 76.88 409.438 76.88C410.184 76.88 410.744 77.2 411.118 77.84C411.491 78.4267 411.624 79.12 411.518 79.92C411.411 80.6667 411.064 81.3334 410.478 81.92C409.891 82.56 409.038 82.88 407.918 82.88ZM408.215 82.88C407.202 82.88 406.535 82.56 406.215 81.92C405.842 81.3334 405.762 80.6667 405.975 79.92C406.135 79.12 406.535 78.4267 407.175 77.84C407.815 77.2 408.642 76.88 409.655 76.88C410.615 76.88 411.815 76.3734 413.255 75.36C414.642 74.2934 416.375 72.6134 418.455 70.32C420.535 67.9734 423.042 64.9067 425.975 61.12C428.909 57.3334 432.375 52.6934 436.375 47.2C437.015 46.3467 437.682 46 438.375 46.16C439.122 46.32 439.629 46.7734 439.895 47.52C440.215 48.2667 440.055 49.0934 439.415 50C435.042 56.4 431.229 61.7334 427.975 66C424.775 70.2134 422.002 73.5734 419.655 76.08C417.255 78.5334 415.149 80.2934 413.335 81.36C411.522 82.3734 409.815 82.88 408.215 82.88ZM462.373 82.88C460.027 82.88 458.267 82.4267 457.093 81.52C455.973 80.6667 455.28 79.5734 455.013 78.24C454.747 76.8534 454.747 75.4134 455.013 73.92C455.28 72.3734 455.627 70.96 456.053 69.68L461.493 54C461.973 52.6134 462.267 51.36 462.373 50.24C462.533 49.0667 462.347 48.1334 461.813 47.44C461.333 46.7467 460.347 46.4 458.853 46.4C457.04 46.4 455.013 47.2 452.773 48.8C450.587 50.4 448.32 52.64 445.973 55.52C443.627 58.4 441.307 61.8134 439.013 65.76C436.773 69.6534 434.693 73.9467 432.773 78.64L432.373 71.44C434.4 66.48 436.56 62.08 438.853 58.24C441.147 54.3467 443.547 51.04 446.053 48.32C448.56 45.6 451.093 43.5467 453.653 42.16C456.267 40.72 458.88 40 461.493 40C463.947 40 465.84 40.6133 467.173 41.84C468.56 43.0134 469.307 44.7734 469.413 47.12C469.573 49.4667 469.067 52.3734 467.893 55.84L463.173 69.6C462.213 72.3734 461.76 74.2934 461.813 75.36C461.92 76.3734 462.613 76.88 463.893 76.88C464.64 76.88 465.173 77.2 465.493 77.84C465.867 78.4267 466 79.12 465.893 79.92C465.84 80.6667 465.52 81.3334 464.933 81.92C464.347 82.56 463.493 82.88 462.373 82.88ZM428.373 82.72C427.52 82.72 426.72 82.5334 425.973 82.16C425.227 81.7867 425.013 81.0934 425.333 80.08L445.653 17.84C447.627 11.6 449.813 7.06668 452.213 4.24002C454.667 1.41335 457.6 1.52588e-05 461.013 1.52588e-05C462.773 1.52588e-05 464.267 0.400015 465.493 1.20001C466.773 2.00002 467.76 3.12002 468.453 4.56001C469.2 5.94668 469.573 7.54668 469.573 9.36001C469.573 10.8 469.36 12.3467 468.933 14C468.507 15.6 467.893 17.3067 467.093 19.12C466.347 20.88 465.387 22.7467 464.213 24.72C463.093 26.64 461.76 28.6134 460.213 30.64C458.72 32.6133 457.067 34.64 455.253 36.72C453.44 38.7467 451.44 40.8267 449.253 42.96C447.12 45.04 444.827 47.1467 442.373 49.28L432.133 80.64C431.92 81.3334 431.547 81.84 431.013 82.16C430.48 82.5334 429.6 82.72 428.373 82.72ZM445.333 40.24C447.04 38.48 448.64 36.6934 450.133 34.88C451.68 33.0667 453.093 31.2533 454.373 29.44C455.707 27.6267 456.907 25.8667 457.973 24.16C459.04 22.4 459.92 20.6933 460.613 19.04C461.36 17.3867 461.92 15.8134 462.293 14.32C462.72 12.7734 462.933 11.3334 462.933 10C462.933 9.25335 462.827 8.61335 462.613 8.08002C462.4 7.54668 462.08 7.14668 461.653 6.88002C461.227 6.56002 460.693 6.40001 460.053 6.40001C459.2 6.40001 458.373 6.77335 457.573 7.52001C456.773 8.21335 455.947 9.52002 455.093 11.44C454.24 13.36 453.227 16.1067 452.053 19.68L445.333 40.24ZM462.356 82.88C461.342 82.88 460.676 82.56 460.356 81.92C459.982 81.3334 459.902 80.6667 460.116 79.92C460.276 79.12 460.676 78.4267 461.316 77.84C461.956 77.2 462.782 76.88 463.796 76.88C465.982 76.88 468.596 76.2667 471.636 75.04C474.622 73.8134 477.982 71.9734 481.716 69.52C482.356 69.0934 482.942 69.0134 483.476 69.28C484.009 69.5467 484.409 70 484.676 70.64C484.996 71.28 485.102 71.9467 484.996 72.64C484.889 73.3334 484.542 73.8934 483.956 74.32C480.809 76.4 477.902 78.08 475.236 79.36C472.516 80.5867 470.089 81.4667 467.956 82C465.769 82.5867 463.902 82.88 462.356 82.88ZM481.716 70.08C482.676 69.4934 483.609 68.88 484.516 68.24C485.422 67.6 486.329 66.96 487.236 66.32C489.636 64.56 491.796 62.7467 493.716 60.88C495.636 59.0134 497.156 57.1734 498.276 55.36C499.449 53.5467 500.036 51.8667 500.036 50.32C500.036 49.0934 499.769 48.1334 499.236 47.44C498.702 46.7467 497.902 46.4 496.836 46.4C496.089 46.4 495.529 46.08 495.156 45.44C494.836 44.8 494.729 44.0534 494.836 43.2C494.942 42.3467 495.289 41.6 495.876 40.96C496.516 40.32 497.396 40 498.516 40C500.116 40 501.582 40.3467 502.916 41.04C504.249 41.68 505.289 42.64 506.036 43.92C506.836 45.1467 507.236 46.64 507.236 48.4C507.236 50.8 506.462 53.3334 504.916 56C503.422 58.6134 501.422 61.2267 498.916 63.84C496.409 66.4 493.609 68.8 490.516 71.04C489.502 71.7334 488.462 72.4534 487.396 73.2C486.329 73.8934 485.262 74.56 484.196 75.2L481.716 70.08ZM493.983 82.88C492.116 82.88 490.436 82.5867 488.943 82C487.396 81.4134 486.063 80.5867 484.943 79.52C483.769 78.4534 482.783 77.2 481.983 75.76C481.183 74.32 480.596 72.7467 480.223 71.04C479.796 69.3334 479.583 67.52 479.583 65.6C479.583 63.0934 479.929 60.3734 480.623 57.44C481.316 54.4534 482.436 51.6534 483.983 49.04C485.476 46.3734 487.423 44.2134 489.823 42.56C492.223 40.8533 495.129 40 498.543 40C499.289 40 499.849 40.32 500.223 40.96C500.543 41.6 500.649 42.3467 500.543 43.2C500.383 44.0534 500.009 44.8 499.423 45.44C498.783 46.08 497.903 46.4 496.783 46.4C495.129 46.4 493.663 47.0667 492.383 48.4C491.103 49.7334 490.063 51.4134 489.263 53.44C488.409 55.4667 487.769 57.5734 487.343 59.76C486.916 61.8934 486.703 63.8134 486.703 65.52C486.703 67.0134 486.889 68.4267 487.263 69.76C487.583 71.0934 488.116 72.2934 488.863 73.36C489.556 74.3734 490.489 75.2 491.663 75.84C492.836 76.4267 494.249 76.72 495.903 76.72C497.929 76.72 500.489 75.68 503.583 73.6C506.623 71.4667 510.143 68.0534 514.143 63.36C518.143 58.6134 522.489 52.32 527.183 44.48C527.449 44.0534 527.849 44 528.383 44.32C528.969 44.64 529.476 45.0934 529.903 45.68C530.329 46.2134 530.409 46.6934 530.143 47.12C525.236 56.1867 520.596 63.3334 516.223 68.56C511.903 73.7334 507.903 77.4134 504.223 79.6C500.489 81.7867 497.076 82.88 493.983 82.88ZM524.303 82.88C521.956 82.88 520.196 82.4534 519.023 81.6C517.903 80.7467 517.209 79.6534 516.943 78.32C516.676 76.9334 516.676 75.4934 516.943 74C517.209 72.4534 517.556 71.0134 517.983 69.68L526.783 42.88C527.156 41.8134 527.583 41.12 528.063 40.8C528.596 40.48 529.369 40.32 530.383 40.32C532.036 40.32 533.076 40.5867 533.503 41.12C533.983 41.6 534.036 42.3734 533.663 43.44L525.103 69.6C524.143 72.4267 523.689 74.3467 523.743 75.36C523.849 76.3734 524.516 76.88 525.743 76.88C526.489 76.88 527.049 77.2 527.423 77.84C527.796 78.4267 527.929 79.12 527.823 79.92C527.769 80.6667 527.449 81.3334 526.863 81.92C526.276 82.56 525.423 82.88 524.303 82.88ZM535.343 28C534.276 28 533.369 27.6534 532.623 26.96C531.876 26.2667 531.503 25.2533 531.503 23.92C531.503 22.48 531.956 21.12 532.863 19.84C533.823 18.56 535.289 17.92 537.263 17.92C538.383 17.92 539.316 18.2667 540.063 18.96C540.809 19.6 541.183 20.6134 541.183 22C541.183 23.44 540.703 24.8 539.743 26.08C538.836 27.36 537.369 28 535.343 28ZM523.903 82.88C523.156 82.88 522.596 82.56 522.223 81.92C521.849 81.3334 521.689 80.6667 521.743 79.92C521.849 79.12 522.196 78.4267 522.783 77.84C523.369 77.2 524.223 76.88 525.343 76.88C526.623 76.88 528.063 76.24 529.663 74.96C531.316 73.68 533.236 71.68 535.423 68.96C537.609 66.1867 540.196 62.5867 543.183 58.16C546.169 53.68 549.663 48.2667 553.663 41.92C554.143 41.1734 554.756 40.8534 555.503 40.96C556.303 41.0667 556.943 41.4134 557.423 42C557.903 42.5867 557.929 43.2267 557.503 43.92C552.969 51.6 549.049 57.9734 545.743 63.04C542.489 68.0534 539.636 72.0267 537.183 74.96C534.729 77.84 532.436 79.8934 530.303 81.12C528.223 82.2934 526.089 82.88 523.903 82.88ZM521.823 123.04C520.063 123.04 518.543 122.64 517.263 121.84C515.983 121.093 514.969 120.027 514.223 118.64C513.476 117.307 513.103 115.787 513.103 114.08C513.103 112.16 513.476 110.187 514.223 108.16C514.969 106.133 516.089 104.08 517.583 102C519.076 99.92 520.943 97.7867 523.183 95.6C525.423 93.4667 528.036 91.28 531.023 89.04C532.409 88.1334 533.769 87.2 535.103 86.24C536.489 85.3334 537.876 84.4 539.263 83.44L552.463 42.88C552.836 41.8134 553.263 41.12 553.743 40.8C554.276 40.48 555.049 40.32 556.063 40.32C557.716 40.32 558.756 40.5867 559.183 41.12C559.663 41.6 559.716 42.3734 559.343 43.44L540.383 101.68C539.156 105.413 537.903 108.613 536.623 111.28C535.343 114 533.956 116.213 532.463 117.92C531.023 119.68 529.423 120.96 527.663 121.76C525.956 122.613 524.009 123.04 521.823 123.04ZM523.103 116.88C524.116 116.88 525.049 116.533 525.903 115.84C526.809 115.2 527.663 114.213 528.463 112.88C529.316 111.547 530.169 109.84 531.023 107.76C531.876 105.733 532.756 103.333 533.663 100.56L536.303 92.32C535.716 92.6934 535.129 93.0667 534.543 93.44C534.009 93.8667 533.449 94.2667 532.863 94.64C530.676 96.4 528.783 98.1067 527.183 99.76C525.583 101.413 524.249 102.987 523.183 104.48C522.116 105.973 521.343 107.44 520.863 108.88C520.383 110.32 520.143 111.76 520.143 113.2C520.143 113.947 520.249 114.587 520.463 115.12C520.729 115.653 521.076 116.08 521.503 116.4C521.929 116.72 522.463 116.88 523.103 116.88ZM561.343 28C560.169 28 559.236 27.6267 558.543 26.88C557.849 26.1334 557.503 25.1467 557.503 23.92C557.503 22.1067 558.009 20.6667 559.023 19.6C560.089 18.48 561.503 17.92 563.263 17.92C564.489 17.92 565.449 18.2934 566.143 19.04C566.836 19.7867 567.183 20.7734 567.183 22C567.183 23.8134 566.649 25.28 565.583 26.4C564.516 27.4667 563.103 28 561.343 28ZM543.633 87.76C543.099 88.0267 542.593 87.9734 542.113 87.6C541.633 87.2267 541.259 86.72 540.993 86.08C540.726 85.44 540.646 84.7734 540.753 84.08C540.806 83.44 541.153 82.96 541.793 82.64C545.099 80.9334 548.033 79.3067 550.593 77.76C553.153 76.16 555.419 74.5867 557.393 73.04C559.366 71.44 561.073 69.84 562.513 68.24C564.006 66.5867 565.339 64.88 566.513 63.12C567.686 61.3067 568.726 59.36 569.633 57.28C570.059 56.32 570.646 55.8667 571.393 55.92C572.139 55.92 572.753 56.2667 573.233 56.96C573.766 57.6 573.819 58.4267 573.393 59.44C572.433 61.7334 571.339 63.8934 570.113 65.92C568.939 67.9467 567.553 69.8667 565.953 71.68C564.353 73.4934 562.513 75.28 560.433 77.04C558.299 78.8 555.846 80.5334 553.073 82.24C550.299 84 547.153 85.84 543.633 87.76ZM575.313 82.88C573.499 82.88 571.926 82.4 570.593 81.44C569.259 80.48 568.219 79.12 567.473 77.36C566.726 75.6 566.353 73.52 566.353 71.12C566.353 68.6667 566.726 66.0267 567.473 63.2C568.219 60.3734 569.339 57.6 570.833 54.88C572.326 52.16 574.139 49.68 576.273 47.44C578.406 45.2 580.859 43.4134 583.633 42.08C586.459 40.6933 589.553 40 592.913 40C594.939 40 597.126 40.3734 599.473 41.12C601.819 41.8134 603.926 42.8 605.793 44.08L604.353 49.6C601.739 48.2134 599.419 47.3334 597.393 46.96C595.366 46.5334 593.499 46.32 591.793 46.32C589.499 46.32 587.393 46.8534 585.473 47.92C583.606 48.9867 581.926 50.4 580.433 52.16C578.993 53.8667 577.766 55.7867 576.753 57.92C575.739 60 574.966 62.08 574.433 64.16C573.899 66.24 573.633 68.1334 573.633 69.84C573.633 71.1734 573.793 72.3467 574.113 73.36C574.433 74.3734 574.886 75.1467 575.473 75.68C576.113 76.2134 576.833 76.48 577.633 76.48C579.606 76.48 581.846 75.4134 584.353 73.28C586.859 71.0934 589.526 67.8934 592.353 63.68C595.233 59.4667 598.166 54.3467 601.153 48.32L604.113 51.28C600.646 58.4267 597.206 64.3467 593.793 69.04C590.433 73.68 587.206 77.1467 584.113 79.44C581.019 81.7334 578.086 82.88 575.313 82.88ZM599.953 82.88C597.553 82.88 595.766 82.4267 594.593 81.52C593.473 80.6667 592.753 79.5734 592.433 78.24C592.166 76.8534 592.166 75.4134 592.433 73.92C592.699 72.3734 593.073 70.96 593.553 69.68L602.513 42.88C602.886 41.8134 603.313 41.12 603.793 40.8C604.326 40.48 605.099 40.32 606.113 40.32C607.766 40.32 608.806 40.5867 609.233 41.12C609.713 41.6 609.766 42.3734 609.393 43.44L600.593 69.6C599.686 72.3734 599.259 74.2934 599.313 75.36C599.419 76.3734 600.086 76.88 601.313 76.88C602.059 76.88 602.619 77.2 602.993 77.84C603.366 78.4267 603.499 79.12 603.393 79.92C603.339 80.6667 603.019 81.3334 602.433 81.92C601.899 82.56 601.073 82.88 599.953 82.88ZM600.014 82.88C599.001 82.88 598.334 82.56 598.014 81.92C597.641 81.3334 597.534 80.6667 597.694 79.92C597.854 79.12 598.254 78.4267 598.894 77.84C599.534 77.2 600.361 76.88 601.374 76.88C602.974 76.88 604.707 76.2667 606.574 75.04C608.387 73.8134 610.494 71.84 612.894 69.12C615.241 66.3467 618.014 62.6934 621.214 58.16C624.414 53.5734 628.121 47.9467 632.334 41.28C632.761 40.5867 633.347 40.32 634.094 40.48C634.894 40.64 635.534 41.0133 636.014 41.6C636.547 42.1867 636.601 42.8267 636.174 43.52C631.961 50.88 628.174 57.0934 624.814 62.16C621.454 67.1734 618.387 71.2 615.614 74.24C612.841 77.28 610.201 79.4934 607.694 80.88C605.187 82.2134 602.627 82.88 600.014 82.88ZM630.574 83.04C627.961 83.04 625.587 82.64 623.454 81.84C621.374 81.04 619.934 80.1867 619.134 79.28C618.334 78.4267 617.961 77.7067 618.014 77.12C618.067 76.48 618.441 75.84 619.134 75.2C619.774 74.56 620.334 74.2667 620.814 74.32C621.347 74.3734 622.041 74.6934 622.894 75.28C623.801 75.8667 624.867 76.4 626.094 76.88C627.374 77.3067 628.734 77.52 630.174 77.52C632.947 77.52 635.107 76.8534 636.654 75.52C638.201 74.1867 638.974 72.3467 638.974 70C638.974 68.6667 638.761 67.3334 638.334 66C637.907 64.6134 637.347 63.2267 636.654 61.84C635.961 60.4534 635.241 59.04 634.494 57.6C633.747 56.16 633.027 54.6667 632.334 53.12C631.641 51.5734 631.081 49.9734 630.654 48.32C630.227 46.6134 630.014 44.8534 630.014 43.04C630.014 40.2133 630.654 38.2133 631.934 37.04C633.267 35.8133 634.654 35.2 636.094 35.2C637.321 35.2 638.254 35.5467 638.894 36.24C639.587 36.88 639.934 37.7067 639.934 38.72C639.934 39.7867 639.507 40.9334 638.654 42.16C637.854 43.3867 637.001 44.5334 636.094 45.6C636.094 46.88 636.334 48.16 636.814 49.44C637.294 50.6667 637.907 51.9467 638.654 53.28C639.401 54.56 640.174 55.8667 640.974 57.2C641.827 58.5334 642.627 59.92 643.374 61.36C644.121 62.7467 644.734 64.1867 645.214 65.68C645.694 67.12 645.934 68.64 645.934 70.24C645.934 74.08 644.547 77.1734 641.774 79.52C639.054 81.8667 635.321 83.04 630.574 83.04Z" fill="black"/>
</svg>
